<svg width="34" height="39" viewBox="0 0 34 39" fill="none" xmlns="http://www.w3.org/2000/svg">
<path id="Subtract" d="M18.4434 38.822C18.1093 38.8497 17.7725 38.8694 17.4326 38.8777L17 38.8826C17.487 38.8826 17.9681 38.8615 18.4434 38.822ZM16.1914 38.864L16.1377 38.8621C16.0897 38.8597 16.042 38.855 15.9941 38.8523C16.0598 38.8561 16.1255 38.861 16.1914 38.864ZM13.9854 38.6169C14.0516 38.6289 14.1181 38.639 14.1846 38.6501C14.1351 38.6418 14.0854 38.6355 14.0361 38.6267L13.9854 38.6169ZM17 5.88159C18.8526 5.88161 20.6257 6.17987 22.3223 6.77515C24.0242 7.37237 25.6251 8.23992 27.126 9.38062L27.6816 9.80249L28.1758 9.30933L30.2383 7.24585L31.7363 8.74292L29.6729 10.8064L29.1797 11.3005L29.6016 11.8562C30.7422 13.3571 31.6098 14.9581 32.207 16.6599C32.8023 18.3564 33.1006 20.1296 33.1006 21.9822C33.1006 24.1922 32.6756 26.2662 31.8291 28.2117C30.9759 30.1725 29.8188 31.8801 28.3584 33.3406C26.898 34.801 25.1903 35.9581 23.2295 36.8113C21.284 37.6577 19.21 38.0827 17 38.0828C14.79 38.0827 12.716 37.6577 10.7705 36.8113C8.80969 35.9581 7.10202 34.8009 5.6416 33.3406C4.18123 31.8802 3.02409 30.1724 2.1709 28.2117C1.32444 26.2662 0.899448 24.1922 0.899414 21.9822C0.899414 19.7721 1.32447 17.6982 2.1709 15.7527C3.02409 13.7918 4.1812 12.0842 5.6416 10.6238C7.10206 9.16332 8.80961 8.00629 10.7705 7.15308C12.716 6.30658 14.7899 5.88162 17 5.88159ZM17 8.03687C13.1577 8.03691 9.856 9.40467 7.13965 12.1208C4.42318 14.8373 3.05566 18.1396 3.05566 21.9822C3.05573 25.8247 4.42325 29.1271 7.13965 31.8435C9.85595 34.5595 13.1578 35.9274 17 35.9275C20.8425 35.9274 24.1449 34.5598 26.8613 31.8435C29.5777 29.1271 30.9452 25.8247 30.9453 21.9822C30.9453 18.1397 29.5777 14.8373 26.8613 12.1208C24.1449 9.40447 20.8425 8.03691 17 8.03687ZM18.9297 34.9988C18.9255 34.9994 18.9212 34.9992 18.917 34.9998C18.9212 34.9992 18.9255 34.9994 18.9297 34.9988ZM14.7773 34.9548C14.764 34.9527 14.7507 34.9502 14.7373 34.948C14.7507 34.9502 14.764 34.9527 14.7773 34.9548ZM19.5771 34.8943C19.5495 34.8994 19.5218 34.9039 19.4941 34.9089C19.5218 34.9039 19.5495 34.8994 19.5771 34.8943ZM19.8838 34.8328C19.8487 34.8402 19.8135 34.8471 19.7783 34.8542C19.8135 34.8471 19.8487 34.8402 19.8838 34.8328ZM14.1758 34.8445C14.1501 34.8392 14.1243 34.8343 14.0986 34.8289C14.1243 34.8343 14.1501 34.8392 14.1758 34.8445ZM20.2178 34.7566C20.1496 34.773 20.0813 34.7891 20.0127 34.8044C20.0813 34.7891 20.1496 34.773 20.2178 34.7566ZM13.9502 34.7957C13.9022 34.7848 13.8544 34.7738 13.8066 34.7625C13.8544 34.7738 13.9022 34.7848 13.9502 34.7957ZM20.5215 34.6794C20.4524 34.6979 20.3831 34.7158 20.3135 34.7332C20.3831 34.7158 20.4524 34.6979 20.5215 34.6794ZM13.6289 34.7185C13.5836 34.707 13.5383 34.6954 13.4932 34.6833C13.5383 34.6954 13.5836 34.707 13.6289 34.7185ZM20.8018 34.6013C20.7408 34.6192 20.6795 34.6362 20.6182 34.6531C20.6795 34.6362 20.7408 34.6192 20.8018 34.6013ZM13.3525 34.6453C13.3001 34.6307 13.2475 34.6166 13.1953 34.6013C13.2475 34.6166 13.3001 34.6306 13.3525 34.6453ZM28.3369 34.4666C28.2925 34.5069 28.2469 34.5458 28.2021 34.5857C28.2533 34.5402 28.3049 34.4951 28.3555 34.449L28.3369 34.4666ZM12.9873 34.5378C12.9704 34.5326 12.9534 34.5276 12.9365 34.5222C12.9534 34.5276 12.9704 34.5326 12.9873 34.5378ZM21.0488 34.5261C21.0381 34.5295 21.0273 34.5325 21.0166 34.5359C21.0273 34.5325 21.0381 34.5295 21.0488 34.5261ZM21.3564 34.4246C21.3359 34.4316 21.3155 34.4391 21.2949 34.446C21.3155 34.4391 21.3359 34.4316 21.3564 34.4246ZM21.666 34.3132C21.6342 34.3252 21.6022 34.3367 21.5703 34.3484C21.6022 34.3367 21.6342 34.3252 21.666 34.3132ZM21.9453 34.2048C21.9132 34.2178 21.8809 34.2302 21.8486 34.2429C21.8809 34.2302 21.9132 34.2178 21.9453 34.2048ZM12.1104 34.2273C12.0973 34.2221 12.0843 34.2169 12.0713 34.2117C12.0843 34.2169 12.0973 34.2221 12.1104 34.2273ZM22.2295 34.0857C22.2006 34.0982 22.1716 34.1105 22.1426 34.1228C22.1716 34.1105 22.2006 34.0982 22.2295 34.0857ZM11.8184 34.1072C11.805 34.1014 11.7917 34.0954 11.7783 34.0896C11.7917 34.0954 11.805 34.1014 11.8184 34.1072ZM22.5498 33.9412C22.5011 33.964 22.4523 33.9864 22.4033 34.0085C22.4523 33.9864 22.5011 33.964 22.5498 33.9412ZM11.5498 33.988C11.5344 33.981 11.5192 33.9736 11.5039 33.9666C11.5192 33.9736 11.5344 33.981 11.5498 33.988ZM22.8467 33.7966C22.7882 33.826 22.7298 33.8552 22.6709 33.8835C22.7298 33.8552 22.7882 33.826 22.8467 33.7966ZM11.2656 33.8533C11.2454 33.8434 11.2253 33.833 11.2051 33.823C11.2253 33.833 11.2454 33.8434 11.2656 33.8533ZM23.1738 33.6277C23.0939 33.6708 23.0133 33.7124 22.9326 33.7537C23.0133 33.7124 23.0939 33.6708 23.1738 33.6277ZM11.0244 33.7322C10.9823 33.7104 10.9404 33.6881 10.8984 33.6658C10.9404 33.6881 10.9823 33.7104 11.0244 33.7322ZM23.4307 33.4841C23.3551 33.5272 23.2794 33.5697 23.2031 33.6111C23.2794 33.5697 23.3551 33.5272 23.4307 33.4841ZM10.7822 33.6033C10.7152 33.5668 10.6485 33.5298 10.582 33.4919C10.6485 33.5298 10.7152 33.5668 10.7822 33.6033ZM10.5088 33.45C10.4555 33.4192 10.4025 33.3878 10.3496 33.3562C10.4025 33.3878 10.4555 33.4192 10.5088 33.45ZM23.8809 33.2146C23.8458 33.2366 23.8106 33.2584 23.7754 33.28C23.8106 33.2584 23.8458 33.2366 23.8809 33.2146ZM10.1914 33.2605C10.1747 33.2502 10.1582 33.2396 10.1416 33.2292C10.1582 33.2396 10.1747 33.2502 10.1914 33.2605ZM24.1172 33.0632C24.0932 33.079 24.069 33.0945 24.0449 33.1101C24.069 33.0945 24.0932 33.079 24.1172 33.0632ZM3.85742 32.5486C3.99676 32.7214 4.13902 32.8919 4.28516 33.0593C4.13904 32.8919 3.99673 32.7215 3.85742 32.5486ZM9.67773 32.9255C9.66754 32.9185 9.65764 32.9111 9.64746 32.9041C9.65764 32.9111 9.66754 32.9185 9.67773 32.9255ZM24.6113 32.7205C24.597 32.7309 24.5827 32.7414 24.5684 32.7517C24.5827 32.7414 24.597 32.7309 24.6113 32.7205ZM25.1279 32.325C25.1083 32.3408 25.0891 32.3571 25.0693 32.3728C25.0891 32.3571 25.1083 32.3408 25.1279 32.325ZM8.67871 32.1677C8.66045 32.1525 8.64224 32.1372 8.62402 32.1218C8.64224 32.1372 8.66045 32.1525 8.67871 32.1677ZM8.19238 31.7429C8.17557 31.7276 8.15935 31.7115 8.14258 31.696C8.15935 31.7115 8.17557 31.7276 8.19238 31.7429ZM26.2959 31.2771L26.0537 31.5144C26.0372 31.5302 26.0195 31.5446 26.0029 31.5603C26.1008 31.4675 26.1985 31.3735 26.2949 31.2771C26.3089 31.2631 26.322 31.2481 26.3359 31.2341C26.3222 31.248 26.3097 31.2633 26.2959 31.2771ZM27.1973 30.2898C27.1772 30.3139 27.156 30.3371 27.1357 30.3611C27.156 30.3371 27.1772 30.3139 27.1973 30.2898ZM27.5908 29.7927C27.5669 29.8243 27.5418 29.855 27.5176 29.8865C27.5418 29.855 27.5669 29.8243 27.5908 29.7927ZM6.45215 29.8494C6.44269 29.837 6.43323 29.8246 6.42383 29.8123C6.43323 29.8246 6.44269 29.837 6.45215 29.8494ZM32.0459 29.6179C32.0634 29.584 32.0814 29.5504 32.0986 29.5164C32.0814 29.5504 32.0634 29.584 32.0459 29.6179ZM27.9668 29.2703C27.941 29.3081 27.9139 29.345 27.8877 29.3826C27.9139 29.345 27.941 29.3081 27.9668 29.2703ZM6.08301 29.3425C6.07262 29.3275 6.06207 29.3126 6.05176 29.2976C6.06207 29.3126 6.07262 29.3275 6.08301 29.3425ZM28.1299 29.0242C28.0972 29.0745 28.0638 29.1245 28.0303 29.1746C28.0638 29.1245 28.0972 29.0745 28.1299 29.0242ZM5.9375 29.1267C5.91479 29.0924 5.89148 29.0586 5.86914 29.0242C5.89148 29.0586 5.91479 29.0924 5.9375 29.1267ZM5.75 28.8357C5.7355 28.8125 5.72038 28.7896 5.70605 28.7664C5.72038 28.7897 5.7355 28.8125 5.75 28.8357ZM28.2959 28.7605C28.2805 28.7855 28.2656 28.8108 28.25 28.8357C28.2656 28.8108 28.2805 28.7855 28.2959 28.7605ZM28.4521 28.4998C28.4374 28.5251 28.4231 28.5507 28.4082 28.5759C28.4231 28.5507 28.4374 28.5251 28.4521 28.4998ZM28.751 27.9568C28.7344 27.9889 28.7171 28.0205 28.7002 28.0525C28.7171 28.0205 28.7344 27.9889 28.751 27.9568ZM28.9082 27.6414C28.8899 27.6795 28.8713 27.7176 28.8525 27.7556C28.8713 27.7176 28.8899 27.6795 28.9082 27.6414ZM29.043 27.3494C29.0116 27.4194 28.979 27.4889 28.9463 27.5583C28.979 27.4889 29.0116 27.4194 29.043 27.3494ZM5.01465 27.4763C5.005 27.4554 4.99488 27.4348 4.98535 27.4138C4.99488 27.4348 5.005 27.4554 5.01465 27.4763ZM29.166 27.0671C29.1356 27.1398 29.1041 27.2119 29.0723 27.2839C29.1041 27.2119 29.1356 27.1398 29.166 27.0671ZM4.89941 27.2195C4.88262 27.1808 4.866 27.1421 4.84961 27.1033C4.866 27.1421 4.88262 27.1808 4.89941 27.2195ZM29.2744 26.7966C29.252 26.854 29.2303 26.9115 29.207 26.9685C29.2303 26.9115 29.252 26.854 29.2744 26.7966ZM29.3779 26.5212C29.358 26.5761 29.338 26.6308 29.3174 26.6853C29.338 26.6308 29.358 26.5761 29.3779 26.5212ZM4.67676 26.6707C4.65701 26.6183 4.6372 26.566 4.61816 26.5134C4.6372 26.566 4.65701 26.6183 4.67676 26.6707ZM4.57227 26.3845C4.55707 26.341 4.54206 26.2974 4.52734 26.2537C4.54206 26.2974 4.55707 26.341 4.57227 26.3845ZM29.4707 26.2556C29.4602 26.2868 29.4502 26.3182 29.4395 26.3494C29.4502 26.3182 29.4602 26.2868 29.4707 26.2556ZM29.5645 25.9646C29.5531 26.0013 29.5429 26.0384 29.5312 26.075C29.5429 26.0384 29.5531 26.0013 29.5645 25.9646ZM29.7568 25.2722C29.7384 25.3467 29.7199 25.421 29.7002 25.4949C29.7199 25.421 29.7385 25.3467 29.7568 25.2722ZM29.8652 24.7957C29.8596 24.823 29.8544 24.8504 29.8486 24.8777C29.8544 24.8504 29.8596 24.823 29.8652 24.7957ZM29.9756 24.1853C29.9723 24.2064 29.9702 24.2277 29.9668 24.2488C29.9702 24.2277 29.9723 24.2064 29.9756 24.1853ZM30.0586 23.5603C30.0562 23.5821 30.0542 23.604 30.0518 23.6257C30.0542 23.604 30.0562 23.5821 30.0586 23.5603ZM3.94629 23.615C3.94422 23.5968 3.94243 23.5785 3.94043 23.5603C3.94243 23.5785 3.94422 23.5968 3.94629 23.615ZM0.119141 22.8171C0.121531 22.8677 0.125102 22.9181 0.12793 22.9685C0.125613 22.9272 0.12214 22.8859 0.120117 22.8445L0.119141 22.8171ZM33.8799 22.8445C33.8779 22.8859 33.8744 22.9272 33.8721 22.9685C33.8749 22.9181 33.8785 22.8677 33.8809 22.8171L33.8799 22.8445ZM30.1455 21.9822L30.1416 22.321C30.1441 22.2086 30.1445 22.0956 30.1445 21.9822C30.1445 21.9585 30.1437 21.9345 30.1436 21.9109C30.1437 21.9346 30.1455 21.9585 30.1455 21.9822ZM0.132812 20.9158C0.119529 21.1346 0.109523 21.3546 0.104492 21.5759L0.0996094 21.9822C0.0996094 21.6236 0.111429 21.268 0.132812 20.9158ZM30.0859 20.6658C30.0868 20.6749 30.0881 20.684 30.0889 20.6931C30.0881 20.684 30.0868 20.6749 30.0859 20.6658ZM30.0127 20.0222C30.0176 20.0576 30.0217 20.0931 30.0264 20.1287C30.0217 20.0931 30.0176 20.0576 30.0127 20.0222ZM29.8506 19.0945C29.8805 19.2354 29.9072 19.3774 29.9326 19.5203C29.9072 19.3774 29.8805 19.2354 29.8506 19.0945ZM4.0752 19.4705C4.07969 19.4457 4.08423 19.4209 4.08887 19.3962C4.08423 19.4209 4.07969 19.4457 4.0752 19.4705ZM4.13574 19.1589C4.14018 19.1375 4.14389 19.1159 4.14844 19.0945C4.14389 19.1159 4.14019 19.1375 4.13574 19.1589ZM4.18555 18.9304C4.19781 18.8762 4.21068 18.8222 4.22363 18.7683C4.21068 18.8222 4.19782 18.8762 4.18555 18.9304ZM29.7725 18.7537C29.7866 18.8124 29.8001 18.8713 29.8135 18.9304C29.8001 18.8714 29.7866 18.8124 29.7725 18.7537ZM4.26562 18.6003C4.27382 18.5682 4.28063 18.5357 4.28906 18.5037C4.28062 18.5357 4.27382 18.5682 4.26562 18.6003ZM29.623 18.1912C29.6347 18.2311 29.646 18.2712 29.6572 18.3113C29.646 18.2712 29.6347 18.2311 29.623 18.1912ZM4.34766 18.2898C4.35696 18.2569 4.36641 18.224 4.37598 18.1912C4.36641 18.224 4.35696 18.2569 4.34766 18.2898ZM4.43555 17.9958C4.44855 17.9538 4.46117 17.9117 4.47461 17.8699C4.46117 17.9117 4.44855 17.9538 4.43555 17.9958ZM29.5273 17.8777C29.5399 17.917 29.5522 17.9564 29.5645 17.9958C29.5522 17.9564 29.5399 17.917 29.5273 17.8777ZM4.52051 17.7302C4.53854 17.6763 4.5574 17.6227 4.57617 17.5691C4.5574 17.6227 4.53855 17.6763 4.52051 17.7302ZM29.3057 17.2458C29.3361 17.3256 29.3657 17.4057 29.3945 17.4861C29.3657 17.4057 29.3361 17.3256 29.3057 17.2458ZM4.69043 17.2537C4.72386 17.166 4.7585 17.0788 4.79395 16.9919C4.75849 17.0788 4.72387 17.166 4.69043 17.2537ZM4.85352 16.8494C4.87038 16.8095 4.88798 16.7699 4.90527 16.7302C4.88797 16.7699 4.87039 16.8095 4.85352 16.8494ZM29.0947 16.7302C29.112 16.7698 29.1287 16.8096 29.1455 16.8494C29.1287 16.8096 29.112 16.7698 29.0947 16.7302ZM4.9668 16.5896C4.99199 16.5337 5.0179 16.4781 5.04395 16.4226C5.01789 16.4781 4.992 16.5337 4.9668 16.5896ZM28.9551 16.4226C28.9811 16.4781 29.007 16.5337 29.0322 16.5896C29.007 16.5337 28.9811 16.4781 28.9551 16.4226ZM5.10059 16.3035C5.12107 16.261 5.14209 16.2188 5.16309 16.1765C5.14209 16.2188 5.12108 16.261 5.10059 16.3035ZM28.8359 16.1765C28.8569 16.2188 28.8779 16.261 28.8984 16.3035C28.8779 16.261 28.8569 16.2188 28.8359 16.1765ZM5.24902 16.0046C5.26392 15.9758 5.27979 15.9474 5.29492 15.9187C5.27978 15.9474 5.26392 15.9758 5.24902 16.0046ZM28.7041 15.9187C28.7192 15.9474 28.7351 15.9758 28.75 16.0046C28.7351 15.9758 28.7192 15.9474 28.7041 15.9187ZM5.39355 15.7341C5.41666 15.692 5.44024 15.6501 5.46387 15.6082C5.44023 15.6501 5.41667 15.692 5.39355 15.7341ZM28.5352 15.6082C28.5588 15.6501 28.5824 15.692 28.6055 15.7341C28.5824 15.692 28.5588 15.6501 28.5352 15.6082ZM5.85352 14.9626C5.784 15.0703 5.71628 15.1787 5.65039 15.2878C5.71627 15.1787 5.78401 15.0703 5.85352 14.9626ZM28.3486 15.2888C28.3906 15.3583 28.4322 15.4277 28.4727 15.4978C28.4322 15.4277 28.3906 15.3583 28.3486 15.2888ZM28.0967 14.8884C28.1067 14.9038 28.117 14.919 28.127 14.9343C28.117 14.919 28.1067 14.9038 28.0967 14.8884ZM6.21875 14.4275C6.24263 14.3943 6.26775 14.3619 6.29199 14.3289C6.26775 14.3619 6.24263 14.3943 6.21875 14.4275ZM27.708 14.3289C27.7319 14.3614 27.7558 14.3938 27.7793 14.4265C27.7558 14.3938 27.7319 14.3614 27.708 14.3289ZM6.60938 13.9109C6.62262 13.8942 6.63607 13.8777 6.64941 13.8611C6.63607 13.8777 6.62262 13.8942 6.60938 13.9109ZM27.3496 13.8611C27.363 13.8777 27.3764 13.8942 27.3896 13.9109C27.3764 13.8942 27.363 13.8777 27.3496 13.8611ZM7.0166 13.4226C7.03388 13.4028 7.05094 13.3828 7.06836 13.363C7.05094 13.3828 7.03388 13.4028 7.0166 13.4226ZM26.9307 13.363C26.9482 13.3829 26.966 13.4026 26.9834 13.4226C26.966 13.4026 26.9482 13.3829 26.9307 13.363ZM24.8311 11.406C24.8434 11.4154 24.8558 11.4249 24.8682 11.4343C24.8558 11.4249 24.8434 11.4154 24.8311 11.406ZM24.2871 11.0144C24.3159 11.034 24.3444 11.0541 24.373 11.074C24.3444 11.0541 24.3159 11.034 24.2871 11.0144ZM24.04 10.8494C24.0888 10.881 24.1371 10.9137 24.1855 10.946C24.1371 10.9137 24.0888 10.881 24.04 10.8494ZM23.7549 10.6707C23.8117 10.7054 23.8684 10.7404 23.9248 10.7761C23.8684 10.7404 23.8117 10.7054 23.7549 10.6707ZM23.4951 10.5154C23.5563 10.5508 23.617 10.5872 23.6777 10.6238C23.617 10.5872 23.5563 10.5508 23.4951 10.5154ZM23.248 10.3767C23.2869 10.398 23.3256 10.4194 23.3643 10.4412C23.3256 10.4194 23.2869 10.398 23.248 10.3767ZM22.9482 10.2166C23.0005 10.2434 23.0525 10.271 23.1045 10.2986C23.0525 10.271 23.0005 10.2434 22.9482 10.2166ZM22.6445 10.0662C22.7132 10.099 22.7815 10.1326 22.8496 10.1667C22.7815 10.1326 22.7132 10.099 22.6445 10.0662ZM22.3906 9.94897C22.4559 9.97842 22.5211 10.0082 22.5859 10.0388C22.5211 10.0082 22.4559 9.97842 22.3906 9.94897ZM22.0986 9.82104C22.1591 9.84643 22.2192 9.8728 22.2793 9.89917C22.2192 9.8728 22.1591 9.84643 22.0986 9.82104ZM21.8145 9.70679C21.8709 9.72884 21.9273 9.75128 21.9834 9.77417C21.9273 9.75129 21.8709 9.72883 21.8145 9.70679ZM21.5508 9.60718C21.6001 9.62511 21.6492 9.64331 21.6982 9.66187C21.6492 9.64331 21.6001 9.6251 21.5508 9.60718ZM21.2354 9.4978C21.2859 9.51463 21.3365 9.53111 21.3867 9.54858C21.3365 9.53111 21.2859 9.51463 21.2354 9.4978ZM20.8652 9.38062C20.9479 9.40529 21.0303 9.43043 21.1123 9.45679C21.0303 9.43044 20.9479 9.40528 20.8652 9.38062ZM13.25 9.34741C13.1512 9.37585 13.0529 9.40546 12.9551 9.43628C13.0529 9.40546 13.1512 9.37585 13.25 9.34741ZM20.6172 9.30933C20.6953 9.33086 20.7731 9.35272 20.8506 9.37573C20.7731 9.35273 20.6953 9.33086 20.6172 9.30933ZM20.3779 9.24585C20.4197 9.25648 20.4614 9.26704 20.5029 9.27808C20.4614 9.26704 20.4197 9.25647 20.3779 9.24585ZM20.0879 9.17554C20.1188 9.18264 20.1498 9.18969 20.1807 9.19702C20.1498 9.18969 20.1188 9.18264 20.0879 9.17554ZM19.8135 9.11597C19.8408 9.12161 19.8682 9.12675 19.8955 9.13257C19.8682 9.12675 19.8408 9.12161 19.8135 9.11597ZM15.0137 8.97241C14.8863 8.99028 14.7597 9.01057 14.6338 9.03198C14.6537 9.0286 14.6734 9.02453 14.6934 9.02124L15.0137 8.97241ZM19.2021 9.00464C19.2233 9.00796 19.2445 9.01098 19.2656 9.0144C19.2445 9.01098 19.2233 9.00796 19.2021 9.00464ZM18.5225 8.91577C18.5756 8.92138 18.6287 8.92715 18.6816 8.93335C18.6287 8.92715 18.5756 8.92137 18.5225 8.91577ZM17.9189 8.86597C17.9528 8.86807 17.9867 8.86949 18.0205 8.87183C17.9867 8.86949 17.9528 8.86807 17.9189 8.86597ZM9.35742 6.93823C9.14858 7.04593 8.94319 7.15819 8.74023 7.27319C8.94319 7.15818 9.14858 7.04594 9.35742 6.93823ZM10.4512 6.41968L10.0703 6.59058C10.0161 6.61563 9.96207 6.64123 9.9082 6.66675C9.96183 6.64134 10.0153 6.61552 10.0693 6.59058L10.4512 6.41968ZM11.6182 5.9646C11.4867 6.00995 11.356 6.05735 11.2256 6.1062L10.8369 6.25757C10.9661 6.20531 11.0954 6.154 11.2256 6.10522L11.6182 5.9646ZM19.6602 5.28589C20.038 5.34487 20.4127 5.41612 20.7842 5.50073C20.4127 5.41617 20.038 5.34483 19.6602 5.28589ZM15.2881 5.16479C15.1472 5.17875 15.007 5.19519 14.8672 5.21265L14.4502 5.26929C14.589 5.24834 14.7283 5.22912 14.8682 5.21167L15.2881 5.16479ZM21.834 0.247803V2.40405H12.167V0.247803H21.834ZM10.0938 37.3845C9.98941 37.3365 9.88616 37.2868 9.7832 37.2371C9.88617 37.2868 9.98941 37.3365 10.0938 37.3845ZM24.4414 37.1257C24.382 37.1555 24.3226 37.1855 24.2627 37.2146C24.3226 37.1855 24.382 37.1555 24.4414 37.1257ZM4.80371 33.6277C4.74448 33.5657 4.68615 33.503 4.62793 33.4402C4.68615 33.503 4.74448 33.5657 4.80371 33.6277ZM29.6836 33.0945C29.6093 33.1792 29.5341 33.2632 29.458 33.3464C29.5341 33.2632 29.6093 33.1792 29.6836 33.0945ZM23.6768 33.3406C23.6051 33.3837 23.5332 33.426 23.4609 33.4675C23.5332 33.426 23.6051 33.3837 23.6768 33.3406ZM31.6523 30.3406C31.6081 30.4176 31.5629 30.4939 31.5176 30.5701C31.5629 30.4939 31.6081 30.4176 31.6523 30.3406ZM29.6836 25.5603C29.6601 25.6464 29.6346 25.7318 29.6094 25.8171C29.6346 25.7318 29.6601 25.6464 29.6836 25.5603ZM29.8193 25.0076C29.8032 25.0797 29.7869 25.1517 29.7695 25.2234C29.7869 25.1517 29.8032 25.0797 29.8193 25.0076ZM33.8545 23.2468C33.8463 23.3595 33.8365 23.4717 33.8262 23.5837C33.8365 23.4717 33.8463 23.3595 33.8545 23.2468ZM29.6924 18.4353C29.7167 18.5257 29.7393 18.6166 29.7617 18.7078C29.7393 18.6166 29.7167 18.5257 29.6924 18.4353ZM29.417 17.5496C29.4449 17.6289 29.4717 17.7088 29.498 17.7888C29.4717 17.7088 29.4449 17.6289 29.417 17.5496ZM29.2051 16.9919C29.2343 17.0636 29.2631 17.1355 29.291 17.2078C29.2631 17.1355 29.2343 17.0636 29.2051 16.9919ZM4.61328 17.4617C4.63838 17.3921 4.66409 17.3227 4.69043 17.2537C4.66408 17.3227 4.63838 17.3921 4.61328 17.4617ZM5.52637 15.4978C5.56695 15.4275 5.60833 15.3575 5.65039 15.2878C5.60833 15.3575 5.56695 15.4275 5.52637 15.4978ZM5.85352 14.9626C5.87695 14.9263 5.90096 14.8904 5.9248 14.8542C5.90096 14.8904 5.87695 14.9264 5.85352 14.9626ZM28.1875 15.0291C28.2311 15.0975 28.2743 15.1661 28.3164 15.2351C28.2743 15.1661 28.2311 15.0975 28.1875 15.0291Z" fill="#263238"/>
</svg>
